<?xml version="1.0" encoding="UTF-8" standalone="no"?>
<!-- Created with Inkscape (http://www.inkscape.org/) -->

<svg
   xmlns:dc="http://purl.org/dc/elements/1.1/"
   xmlns:cc="http://creativecommons.org/ns#"
   xmlns:rdf="http://www.w3.org/1999/02/22-rdf-syntax-ns#"
   xmlns:svg="http://www.w3.org/2000/svg"
   xmlns="http://www.w3.org/2000/svg"
   xmlns:sodipodi="http://sodipodi.sourceforge.net/DTD/sodipodi-0.dtd"
   xmlns:inkscape="http://www.inkscape.org/namespaces/inkscape"
   width="212"
   height="80"
   viewBox="0 0 212 80"
   id="svg2"
   version="1.1"
   inkscape:version="0.91 r13725"
   sodipodi:docname="logoTech.svg">
  <defs
     id="defs4" />
  <sodipodi:namedview
     id="base"
     pagecolor="#ffffff"
     bordercolor="#666666"
     borderopacity="1.0"
     inkscape:pageopacity="0.0"
     inkscape:pageshadow="2"
     inkscape:zoom="0.35"
     inkscape:cx="-976.32947"
     inkscape:cy="762.05417"
     inkscape:document-units="px"
     inkscape:current-layer="layer1"
     showgrid="false"
     inkscape:window-width="1920"
     inkscape:window-height="1017"
     inkscape:window-x="-8"
     inkscape:window-y="-8"
     inkscape:window-maximized="1"
     units="px" />
  <metadata
     id="metadata7">
    <rdf:RDF>
      <cc:Work
         rdf:about="">
        <dc:format>image/svg+xml</dc:format>
        <dc:type
           rdf:resource="http://purl.org/dc/dcmitype/StillImage" />
        <dc:title></dc:title>
      </cc:Work>
    </rdf:RDF>
  </metadata>
  <g
     inkscape:label="Camada 1"
     inkscape:groupmode="layer"
     id="layer1"
     transform="translate(0,-972.36221)">
    <g
       id="g3554"
       transform="matrix(0.99016982,0,0,0.98935785,-94.418002,841.95527)">
      <g
         transform="matrix(0.30216235,0,0,0.30216235,96.219221,45.248704)"
         id="g3451">
        <path
           inkscape:connector-curvature="0"
           id="path3362"
           style="fill:#008000;fill-opacity:1;fill-rule:nonzero;stroke:none"
           d="m 276.24733,361.95785 -36.58125,0 -18.28625,129.57 -20.71375,-23.57875 c -7.055,5.58125 -16.38125,13.4425 -27.9875,23.57875 l 18.29125,-129.57 -36.8025,0 6.83125,-48.92125 122.08,0 -6.83125,48.92125 z" />
        <path
           inkscape:connector-curvature="0"
           id="path3364"
           style="fill:#008000;fill-opacity:1;fill-rule:nonzero;stroke:none"
           d="m 416.12108,361.73785 -73.16,0 -3.525,24.6775 56.19125,0 -26.885,24.01875 c 4.7025,6.1725 11.3875,14.4 20.05375,24.6825 l -56.19125,0 -3.305,24.45875 73.15875,0 -6.83125,49.14 -93.2075,0 c -5.7325,0 -11.46,-3.525 -17.1875,-10.57625 -5.87875,-7.055 -8.4475,-13.4425 -7.715,-19.17375 l 18.95,-136.1775 c 0.88375,-6.025 5.36125,-12.49 13.4425,-19.395 8.2275,-6.90375 15.425,-10.35625 21.59625,-10.35625 l 91.44625,0 -6.83125,48.70125 z" />
        <path
           inkscape:connector-curvature="0"
           id="path3366"
           style="fill:#008000;fill-opacity:1;fill-rule:nonzero;stroke:none"
           d="m 539.80733,508.71535 -93.2125,0 c -5.7275,0 -11.455,-3.525 -17.1875,-10.57625 -5.875,-7.055 -8.4475,-13.4425 -7.71,-19.17375 l 18.95,-136.1775 c 0.88375,-6.17125 5.36125,-12.63625 13.4425,-19.395 8.2275,-6.90375 15.425,-10.35625 21.59625,-10.35625 l 75.36125,0 -27.10375,24.01875 c 4.70125,6.1725 11.46,14.4 20.2725,24.6825 l -57.075,0 -13.6625,97.8375 73.16,0 -6.83125,49.14 z" />
        <path
           inkscape:connector-curvature="0"
           id="path3368"
           style="fill:#008000;fill-opacity:1;fill-rule:nonzero;stroke:none"
           d="m 678.39108,508.71535 -48.92125,0 10.3625,-73.37875 -24.46375,0 -10.35625,73.37875 -48.92125,0 25.1225,-178.71 20.7125,23.79875 c 5.1425,-4.25875 14.54625,-12.1925 28.20875,-23.79875 l -7.935,56.19125 24.4625,0 10.3575,-73.16 48.69625,0 -27.325,195.67875 z" />
        <path
           inkscape:connector-curvature="0"
           id="path3370"
           style="fill:#ff0000;fill-opacity:1;fill-rule:nonzero;stroke:none"
           d="m 1.139826,312.5491 142.857504,0 -4,31.425 -142.856254,0 3.99875,-31.425 z" />
        <path
           inkscape:connector-curvature="0"
           id="path3372"
           style="fill:#00b100;fill-opacity:1;fill-rule:nonzero;stroke:none"
           d="m 71.423576,479.68785 48.573754,0 -4.00375,31.43 -48.568754,0 3.99875,-31.43 z" />
        <path
           inkscape:connector-curvature="0"
           id="path3374"
           style="fill:#f1de00;fill-opacity:1;fill-rule:nonzero;stroke:none"
           d="m 19.157326,354.33035 118.838754,0 -3.99875,31.43125 -118.838754,0 3.99875,-31.43125 z" />
        <path
           inkscape:connector-curvature="0"
           id="path3376"
           style="fill:#00b100;fill-opacity:1;fill-rule:nonzero;stroke:none"
           d="m 51.979826,437.90535 74.013754,0 -3.99875,31.425 -74.018754,0 4.00375,-31.425 z" />
        <path
           inkscape:connector-curvature="0"
           id="path3378"
           style="fill:#00b100;fill-opacity:1;fill-rule:nonzero;stroke:none"
           d="m 36.193576,396.11785 95.801254,0 -3.99875,31.43125 -95.806254,0 4.00375,-31.43125 z" />
        <path
           inkscape:connector-curvature="0"
           id="path3380"
           style="fill:#00ff00;fill-opacity:1;fill-rule:nonzero;stroke:none"
           d="m 405.76483,435.3366 -20.9325,-24.01875 c 4.40375,-4.2625 13.66125,-12.5625 27.7625,-24.9025 l -6.83,48.92125 z" />
        <path
           inkscape:connector-curvature="0"
           id="path3382"
           style="fill:#00ff00;fill-opacity:1;fill-rule:nonzero;stroke:none"
           d="m 560.96483,361.95785 -20.7175,-24.23875 c 4.40875,-4.2625 13.58875,-12.49 27.54875,-24.6825 l -6.83125,48.92125 z" />
        <path
           inkscape:connector-curvature="0"
           id="path3384"
           style="fill:#00ff00;fill-opacity:1;fill-rule:nonzero;stroke:none"
           d="m 632.33608,313.2566 -27.32375,24.23875 c -3.67125,-3.965 -10.86875,-12.04625 -21.59625,-24.23875 l 48.92,0 z" />
        <path
           inkscape:connector-curvature="0"
           id="path3386"
           style="fill:#00ff00;fill-opacity:1;fill-rule:nonzero;stroke:none"
           d="m 218.95233,508.4966 -48.915,0 27.54375,-24.24375 c 3.67125,3.82375 10.795,11.9 21.37125,24.24375 z" />
      </g>
      <g
         id="text3466"
         style="font-style:normal;font-weight:normal;font-size:7.92153072px;line-height:125%;font-family:sans-serif;letter-spacing:0px;word-spacing:0px;fill:#008000;fill-opacity:1;stroke:none;stroke-width:1px;stroke-linecap:butt;stroke-linejoin:miter;stroke-opacity:1">
        <path
           id="path3538"
           style="font-style:normal;font-variant:normal;font-weight:normal;font-stretch:normal;font-family:'Killer boots';-inkscape-font-specification:'Killer boots';fill:#008000;fill-opacity:1"
           d="m 101.55726,135.14464 q -0.0396,0.30102 -0.46737,0.68918 -0.42777,0.38023 -0.72879,0.38023 l -1.592223,0 -0.285175,2.01999 -0.752546,-0.8476 q -0.142587,0.10298 -1.006034,0.8476 l 0.903054,-6.41644 3.287434,0 q 0.33271,0 0.66541,0.36439 0.34063,0.36439 0.2931,0.69709 l -0.31686,2.26556 z m -3.160695,3.69936 -1.75858,0 0.98227,-0.87137 q 0.20596,0.20596 0.77631,0.87137 z m 1.489248,-4.39645 0.126747,-0.87137 -0.871371,0 -0.126745,0.87137 0.871369,0 z"
           inkscape:connector-curvature="0" />
        <path
           id="path3540"
           style="font-style:normal;font-variant:normal;font-weight:normal;font-stretch:normal;font-family:'Killer boots';-inkscape-font-specification:'Killer boots';fill:#008000;fill-opacity:1"
           d="m 106.60179,134.51092 q -0.23765,0.57827 -0.91098,0.83968 0.28517,0.1109 0.50698,0.39608 0.23764,0.30894 0.19804,0.59411 l -0.34855,2.51113 -1.75858,0 0.37231,-2.63787 -0.87929,0 -0.28517,2.01999 -0.75255,-0.8476 q -0.14259,0.10298 -1.00603,0.8476 l 0.90305,-6.41644 3.29536,0 q 0.31686,0 0.60995,0.30102 0.30102,0.30102 0.31687,0.61788 0.0158,0.24556 -0.0792,0.90305 -0.0951,0.65749 -0.18219,0.87137 z m -3.19238,4.33308 -1.75858,0 0.98227,-0.87137 q 0.20596,0.20596 0.77631,0.87137 z m 1.48925,-4.39645 0.12674,-0.87137 -0.87137,0 -0.12674,0.87137 0.87137,0 z"
           inkscape:connector-curvature="0" />
        <path
           id="path3542"
           style="font-style:normal;font-variant:normal;font-weight:normal;font-stretch:normal;font-family:'Killer boots';-inkscape-font-specification:'Killer boots';fill:#008000;fill-opacity:1"
           d="m 111.39629,137.79043 q -0.0396,0.26934 -0.45153,0.65749 -0.43568,0.404 -0.74462,0.404 l -2.31309,0 q -0.30102,0 -0.60995,-0.38816 -0.31687,-0.38023 -0.27726,-0.68125 l 0.68125,-4.8955 q 0.0475,-0.32479 0.48322,-0.6971 0.4436,-0.38023 0.77631,-0.38023 l 2.19426,0 q 0.3327,0 0.66541,0.37231 0.3327,0.37231 0.28517,0.69709 l -0.68917,4.91135 z m -1.66352,-0.70501 0.49113,-3.50924 -0.87136,0 -0.49114,3.50924 0.87137,0 z"
           inkscape:connector-curvature="0" />
        <path
           id="path3544"
           style="font-style:normal;font-variant:normal;font-weight:normal;font-stretch:normal;font-family:'Killer boots';-inkscape-font-specification:'Killer boots';fill:#008000;fill-opacity:1"
           d="m 117.07764,134.46339 -0.99019,0.87137 q -0.19804,-0.20596 -0.76839,-0.87137 l 1.75858,0 z m 0.11882,-0.89513 -2.62995,0 -0.49905,3.52508 0.87929,0 0.28517,-2.01999 0.74463,0.8476 q 0.38023,-0.30102 1.00603,-0.8476 l -0.53074,3.77857 -3.34289,0 q -0.30894,0 -0.61788,-0.38023 -0.31686,-0.38024 -0.27725,-0.68918 l 0.68125,-4.8955 q 0.0475,-0.32479 0.48321,-0.6971 0.44361,-0.37231 0.77631,-0.37231 l 3.28744,0 -0.24557,1.75066 z"
           inkscape:connector-curvature="0" />
        <path
           id="path3546"
           style="font-style:normal;font-variant:normal;font-weight:normal;font-stretch:normal;font-family:'Killer boots';-inkscape-font-specification:'Killer boots';fill:#008000;fill-opacity:1"
           d="m 122.1973,134.51092 q -0.23765,0.57827 -0.91098,0.83968 0.28518,0.1109 0.50698,0.39608 0.23765,0.30894 0.19804,0.59411 l -0.34855,2.51113 -1.75858,0 0.37231,-2.63787 -0.87929,0 -0.28517,2.01999 -0.75255,-0.8476 q -0.14258,0.10298 -1.00603,0.8476 l 0.90305,-6.41644 3.29536,0 q 0.31686,0 0.60996,0.30102 0.30102,0.30102 0.31686,0.61788 0.0158,0.24556 -0.0792,0.90305 -0.0951,0.65749 -0.18219,0.87137 z m -3.19238,4.33308 -1.75858,0 0.98227,-0.87137 q 0.20596,0.20596 0.77631,0.87137 z m 1.48925,-4.39645 0.12674,-0.87137 -0.87136,0 -0.12675,0.87137 0.87137,0 z"
           inkscape:connector-curvature="0" />
        <path
           id="path3548"
           style="font-style:normal;font-variant:normal;font-weight:normal;font-stretch:normal;font-family:'Killer boots';-inkscape-font-specification:'Killer boots';fill:#008000;fill-opacity:1"
           d="m 126.92051,138.23404 -0.7367,-0.8476 q -0.14259,0.10298 -1.00604,0.8476 l 0.27726,-2.01999 -0.87137,0 -0.37231,2.63787 -1.7665,0 0.83968,-5.96491 q 0.0475,-0.33271 0.48321,-0.70502 0.43569,-0.37231 0.76839,-0.37231 l 2.19426,0 q 0.33271,0 0.65749,0.37231 0.33271,0.36439 0.28518,0.69709 l -0.75255,5.35496 z m -0.0792,0.60996 -1.75858,0 0.99019,-0.87137 q 0.19804,0.20596 0.76839,0.87137 z m -1.14863,-4.39645 0.12675,-0.87137 -0.87137,0 -0.12674,0.87137 0.87136,0 z"
           inkscape:connector-curvature="0" />
        <path
           id="path3550"
           style="font-style:normal;font-variant:normal;font-weight:normal;font-stretch:normal;font-family:'Killer boots';-inkscape-font-specification:'Killer boots';fill:#008000;fill-opacity:1"
           d="m 134.69314,138.85192 -1.75066,0 0.73671,-5.27574 -0.87137,0 -0.74463,5.27574 -1.7665,0 0.74463,-5.27574 -0.88722,0 -0.64956,4.65786 -0.75255,-0.8476 q -0.11882,0.0871 -1.00603,0.8476 l 0.75255,-5.34703 q 0.0475,-0.33271 0.45152,-0.68126 0.404,-0.35646 0.7367,-0.38023 0.24557,-0.0158 0.74463,-0.0158 0.71294,0 0.90305,0.0555 0.55451,0.15843 0.72878,0.80007 0.38024,-0.64164 0.9189,-0.80007 0.19804,-0.0555 0.92682,-0.0555 0.46737,0 0.7367,0.0158 0.30894,0.0158 0.61788,0.38816 0.30894,0.36439 0.26933,0.6654 l -0.83968,5.97284 z m -5.27574,-0.008 -1.75858,0 0.98227,-0.87137 q 0.20596,0.20596 0.77631,0.87137 z"
           inkscape:connector-curvature="0" />
        <path
           id="path3552"
           style="font-style:normal;font-variant:normal;font-weight:normal;font-stretch:normal;font-family:'Killer boots';-inkscape-font-specification:'Killer boots';fill:#008000;fill-opacity:1"
           d="m 139.99413,138.23404 -0.7367,-0.8476 q -0.14259,0.10298 -1.00604,0.8476 l 0.27726,-2.01999 -0.87137,0 -0.37231,2.63787 -1.7665,0 0.83968,-5.96491 q 0.0475,-0.33271 0.48321,-0.70502 0.43569,-0.37231 0.76839,-0.37231 l 2.19426,0 q 0.33271,0 0.65749,0.37231 0.33271,0.36439 0.28518,0.69709 l -0.75255,5.35496 z m -0.0792,0.60996 -1.75858,0 0.99019,-0.87137 q 0.19804,0.20596 0.76839,0.87137 z m -1.14863,-4.39645 0.12675,-0.87137 -0.87137,0 -0.12674,0.87137 0.87136,0 z"
           inkscape:connector-curvature="0" />
      </g>
      <g
         id="text3466-2"
         style="font-style:normal;font-weight:normal;font-size:10.44565964px;line-height:125%;font-family:sans-serif;letter-spacing:0px;word-spacing:0px;fill:#000000;fill-opacity:1;stroke:none;stroke-width:1px;stroke-linecap:butt;stroke-linejoin:miter;stroke-opacity:1">
        <path
           id="path3489"
           style="font-style:normal;font-variant:normal;font-weight:normal;font-stretch:normal;font-family:'Killer boots';-inkscape-font-specification:'Killer boots';fill:#000000;fill-opacity:1"
           d="m 126.83855,207.78165 q -0.0731,0.49094 -0.67897,0.961 -0.5954,0.45961 -1.10724,0.45961 -0.0731,0 -0.13579,-0.0209 l -0.37604,2.67409 q -0.32382,-0.3447 -0.99234,-1.11768 -0.50139,0.39693 -1.3266,1.11768 l 0.3656,-2.6323 q -0.55362,0.0104 -1.04457,-0.40738 -0.49094,-0.41783 -0.49094,-0.961 0,-0.0836 0.0104,-0.15669 l 0.60585,-4.30361 2.30849,0 -0.49095,3.46796 1.15947,0 0.4805,-3.46796 2.33983,0 -0.62674,4.38718 z m -2.42339,4.87812 -2.31894,0 1.30571,-1.14902 q 0.26114,0.27158 1.01323,1.14902 z"
           inkscape:connector-curvature="0" />
        <path
           id="path3491"
           style="font-style:normal;font-variant:normal;font-weight:normal;font-stretch:normal;font-family:'Killer boots';-inkscape-font-specification:'Killer boots';fill:#000000;fill-opacity:1"
           d="m 133.19261,211.2705 q -0.0522,0.35515 -0.5954,0.86699 -0.57451,0.53272 -0.98189,0.53272 l -3.05013,0 q -0.39694,0 -0.80432,-0.51183 -0.41783,-0.50139 -0.3656,-0.89833 l 0.89833,-6.45542 q 0.0627,-0.42827 0.63718,-0.91922 0.58496,-0.50139 1.02368,-0.50139 l 2.89345,0 q 0.43871,0 0.87743,0.49095 0.43872,0.49095 0.37604,0.91922 l -0.90877,6.47631 z m -2.19359,-0.92967 0.64763,-4.62742 -1.14902,0 -0.64763,4.62742 1.14902,0 z"
           inkscape:connector-curvature="0" />
        <path
           id="path3493"
           style="font-style:normal;font-variant:normal;font-weight:normal;font-stretch:normal;font-family:'Killer boots';-inkscape-font-specification:'Killer boots';fill:#000000;fill-opacity:1"
           d="m 137.68637,203.40491 -1.29526,1.14903 q -0.0522,-0.0627 -1.02368,-1.14903 l 2.31894,0 z m 2.38161,7.86559 q -0.0522,0.39693 -0.6163,0.89832 -0.56406,0.50139 -0.961,0.50139 l -3.03968,0 q -0.39694,0 -0.81476,-0.51183 -0.41783,-0.50139 -0.3656,-0.89833 l 0.99234,-7.06127 0.98189,1.12814 q 0.3656,-0.28204 1.3266,-1.12814 l -0.86699,6.1525 1.16991,0 0.98189,-6.95681 2.31894,0 -1.10724,7.87603 z"
           inkscape:connector-curvature="0" />
        <path
           id="path3495"
           style="font-style:normal;font-variant:normal;font-weight:normal;font-stretch:normal;font-family:'Killer boots';-inkscape-font-specification:'Killer boots';fill:#000000;fill-opacity:1"
           d="m 147.71632,205.71341 -1.73398,0 -0.86699,6.14204 -0.98189,-1.11768 q -0.50139,0.39693 -1.3266,1.11768 l 0.86699,-6.14204 -1.74442,0 0.32381,-2.31894 5.7869,0 -0.32382,2.31894 z m -2.71587,6.94636 -2.31894,0 1.30571,-1.14902 q 0.26114,0.27158 1.01323,1.14902 z"
           inkscape:connector-curvature="0" />
        <path
           id="path3497"
           style="font-style:normal;font-variant:normal;font-weight:normal;font-stretch:normal;font-family:'Killer boots';-inkscape-font-specification:'Killer boots';fill:#000000;fill-opacity:1"
           d="m 151.19228,203.40491 -1.29526,1.14903 q -0.0522,-0.0627 -1.02368,-1.14903 l 2.31894,0 z m 2.38161,7.86559 q -0.0522,0.39693 -0.61629,0.89832 -0.56407,0.50139 -0.96101,0.50139 l -3.03968,0 q -0.39694,0 -0.81476,-0.51183 -0.41783,-0.50139 -0.3656,-0.89833 l 0.99234,-7.06127 0.98189,1.12814 q 0.3656,-0.28204 1.3266,-1.12814 l -0.86699,6.1525 1.16991,0 0.98189,-6.95681 2.31894,0 -1.10724,7.87603 z"
           inkscape:connector-curvature="0" />
        <path
           id="path3499"
           style="font-style:normal;font-variant:normal;font-weight:normal;font-stretch:normal;font-family:'Killer boots';-inkscape-font-specification:'Killer boots';fill:#000000;fill-opacity:1"
           d="m 158.06765,203.40491 -1.29527,1.14903 q -0.26114,-0.28204 -1.02367,-1.14903 l 2.31894,0 z m 2.5174,6.90459 q -0.0627,0.4596 -0.21936,1.14902 -0.12535,0.3656 -0.62674,0.78342 -0.50139,0.42827 -0.86699,0.42827 l -4.41851,0 1.1908,-8.47143 0.98189,1.12814 q 0.3656,-0.28204 1.3266,-1.12814 l -0.37604,2.66365 1.16991,0 0.15669,-1.13858 q -0.1358,-0.0209 -0.28203,-0.0209 -0.14624,0 -0.29248,0.0209 l 0.33426,-2.32938 1.51462,0 q 0.31337,0 0.74164,0.44916 0.43872,0.44917 0.40738,0.76254 -0.0313,0.36559 -0.10446,1.15946 -0.10445,0.85655 -0.24025,1.18036 -0.32381,0.76254 -1.20125,1.10724 0.91922,0.42827 0.91922,1.34749 0,0.0836 -0.1149,0.90878 z m -2.32938,0.0313 0.15668,-1.14902 -1.14902,0 -0.15669,1.14902 1.14903,0 z"
           inkscape:connector-curvature="0" />
        <path
           id="path3501"
           style="font-style:normal;font-variant:normal;font-weight:normal;font-stretch:normal;font-family:'Killer boots';-inkscape-font-specification:'Killer boots';fill:#000000;fill-opacity:1"
           d="m 167.58625,209.19181 -0.99233,-1.13858 q 0.31337,-0.30292 1.31615,-1.18036 l -0.32382,2.31894 z m 0.49095,-3.48885 -3.46796,0 -0.16713,1.16991 2.66364,0 -1.27437,1.13858 q 0.33426,0.43872 0.95056,1.16991 l -2.66365,0 -0.15668,1.15947 3.46796,0 -0.32382,2.32938 -4.41851,0 q -0.40738,0 -0.81476,-0.50139 -0.41783,-0.50139 -0.3656,-0.90877 l 0.89833,-6.45542 q 0.0627,-0.42827 0.63718,-0.91922 0.58496,-0.49094 1.02368,-0.49094 l 4.33495,0 -0.32382,2.30849 z"
           inkscape:connector-curvature="0" />
        <path
           id="path3503"
           style="font-style:normal;font-variant:normal;font-weight:normal;font-stretch:normal;font-family:'Killer boots';-inkscape-font-specification:'Killer boots';fill:#000000;fill-opacity:1"
           d="m 170.63949,212.31506 q -0.40739,0.35515 -0.83566,0.35515 -0.44916,0 -0.76253,-0.3447 -0.31337,-0.34471 -0.2507,-0.79387 0.0627,-0.45961 0.45961,-0.81476 0.40738,-0.3656 0.86699,-0.3656 0.41783,0 0.71031,0.30292 0.29248,0.30293 0.29248,0.72075 0,0.52229 -0.4805,0.94011 z"
           inkscape:connector-curvature="0" />
        <path
           id="path3505"
           style="font-style:normal;font-variant:normal;font-weight:normal;font-stretch:normal;font-family:'Killer boots';-inkscape-font-specification:'Killer boots';fill:#000000;fill-opacity:1"
           d="m 177.996,207.78165 q -0.0522,0.39693 -0.61629,0.90877 -0.56407,0.50139 -0.961,0.50139 l -2.09958,0 -0.37604,2.66364 -0.99234,-1.11768 q -0.18802,0.13579 -1.3266,1.11768 l 1.19081,-8.46098 4.33494,0 q 0.43872,0 0.87744,0.4805 0.44916,0.4805 0.38649,0.91922 l -0.41783,2.98746 z m -4.16782,4.87812 -2.31893,0 1.29526,-1.14902 q 0.27159,0.27158 1.02367,1.14902 z m 1.96379,-5.79734 0.16713,-1.14902 -1.14902,0 -0.16713,1.14902 1.14902,0 z"
           inkscape:connector-curvature="0" />
        <path
           id="path3507"
           style="font-style:normal;font-variant:normal;font-weight:normal;font-stretch:normal;font-family:'Killer boots';-inkscape-font-specification:'Killer boots';fill:#000000;fill-opacity:1"
           d="m 184.64793,206.94599 q -0.31337,0.76254 -1.20125,1.10724 0.37604,0.14624 0.66852,0.52229 0.31337,0.40738 0.26114,0.78342 l -0.4596,3.31127 -2.31894,0 0.49094,-3.4784 -1.15946,0 -0.37605,2.66364 -0.99233,-1.11768 q -0.18803,0.13579 -1.3266,1.11768 l 1.1908,-8.46098 4.3454,0 q 0.41782,0 0.80431,0.39693 0.39694,0.39694 0.41783,0.81477 0.0209,0.32381 -0.10446,1.1908 -0.12535,0.86699 -0.24025,1.14902 z m -4.2096,5.71378 -2.31894,0 1.29527,-1.14902 q 0.27158,0.27158 1.02367,1.14902 z m 1.96378,-5.79734 0.16714,-1.14902 -1.14903,0 -0.16713,1.14902 1.14902,0 z"
           inkscape:connector-curvature="0" />
        <path
           id="path3509"
           style="font-style:normal;font-variant:normal;font-weight:normal;font-stretch:normal;font-family:'Killer boots';-inkscape-font-specification:'Killer boots';fill:#000000;fill-opacity:1"
           d="m 190.97016,211.2705 q -0.0522,0.35515 -0.5954,0.86699 -0.57451,0.53272 -0.98189,0.53272 l -3.05013,0 q -0.39694,0 -0.80432,-0.51183 -0.41783,-0.50139 -0.3656,-0.89833 l 0.89833,-6.45542 q 0.0627,-0.42827 0.63718,-0.91922 0.58496,-0.50139 1.02368,-0.50139 l 2.89345,0 q 0.43872,0 0.87743,0.49095 0.43872,0.49095 0.37605,0.91922 l -0.90878,6.47631 z m -2.19358,-0.92967 0.64763,-4.62742 -1.14903,0 -0.64763,4.62742 1.14903,0 z"
           inkscape:connector-curvature="0" />
        <path
           id="path3511"
           style="font-style:normal;font-variant:normal;font-weight:normal;font-stretch:normal;font-family:'Killer boots';-inkscape-font-specification:'Killer boots';fill:#000000;fill-opacity:1"
           d="m 198.46182,206.88332 -1.3057,1.14902 q -0.26114,-0.27159 -1.01323,-1.14902 l 2.31893,0 z m 0.15669,-1.18036 -3.46796,0 -0.65808,4.64832 1.15947,0 0.37605,-2.66365 0.98189,1.11769 q 0.50139,-0.39693 1.3266,-1.11769 l -0.69986,4.98258 -4.40807,0 q -0.40738,0 -0.81476,-0.50139 -0.41783,-0.50139 -0.3656,-0.90877 l 0.89833,-6.45542 q 0.0627,-0.42827 0.63718,-0.91922 0.58496,-0.49094 1.02368,-0.49094 l 4.33494,0 -0.32381,2.30849 z"
           inkscape:connector-curvature="0" />
        <path
           id="path3513"
           style="font-style:normal;font-variant:normal;font-weight:normal;font-stretch:normal;font-family:'Killer boots';-inkscape-font-specification:'Killer boots';fill:#000000;fill-opacity:1"
           d="m 205.21282,206.94599 q -0.31337,0.76254 -1.20125,1.10724 0.37605,0.14624 0.66852,0.52229 0.31337,0.40738 0.26115,0.78342 l -0.45961,3.31127 -2.31894,0 0.49095,-3.4784 -1.15947,0 -0.37605,2.66364 -0.99233,-1.11768 q -0.18802,0.13579 -1.3266,1.11768 l 1.1908,-8.46098 4.3454,0 q 0.41782,0 0.80431,0.39693 0.39694,0.39694 0.41783,0.81477 0.0209,0.32381 -0.10446,1.1908 -0.12534,0.86699 -0.24025,1.14902 z m -4.2096,5.71378 -2.31893,0 1.29526,-1.14902 q 0.27158,0.27158 1.02367,1.14902 z m 1.96379,-5.79734 0.16713,-1.14902 -1.14903,0 -0.16713,1.14902 1.14903,0 z"
           inkscape:connector-curvature="0" />
        <path
           id="path3515"
           style="font-style:normal;font-variant:normal;font-weight:normal;font-stretch:normal;font-family:'Killer boots';-inkscape-font-specification:'Killer boots';fill:#000000;fill-opacity:1"
           d="m 211.44105,211.85545 -0.97145,-1.11768 q -0.18802,0.13579 -1.3266,1.11768 l 0.3656,-2.66364 -1.14902,0 -0.49095,3.4784 -2.32938,0 1.10724,-7.86558 q 0.0627,-0.43871 0.63719,-0.92966 0.57451,-0.49095 1.01323,-0.49095 l 2.89344,0 q 0.43872,0 0.86699,0.49095 0.43872,0.4805 0.37605,0.91922 l -0.99234,7.06126 z m -0.10446,0.80432 -2.31893,0 1.3057,-1.14902 q 0.26114,0.27158 1.01323,1.14902 z m -1.51462,-5.79734 0.16713,-1.14902 -1.14902,0 -0.16713,1.14902 1.14902,0 z"
           inkscape:connector-curvature="0" />
        <path
           id="path3517"
           style="font-style:normal;font-variant:normal;font-weight:normal;font-stretch:normal;font-family:'Killer boots';-inkscape-font-specification:'Killer boots';fill:#000000;fill-opacity:1"
           d="m 221.69036,212.67021 -2.30849,0 0.97145,-6.9568 -1.14902,0 -0.9819,6.9568 -2.32938,0 0.98189,-6.9568 -1.16991,0 -0.85654,6.14204 -0.99234,-1.11768 q -0.15669,0.1149 -1.3266,1.11768 l 0.99234,-7.05082 q 0.0627,-0.43871 0.5954,-0.89832 0.53273,-0.47006 0.97145,-0.5014 0.32381,-0.0209 0.98189,-0.0209 0.94011,0 1.1908,0.0731 0.7312,0.20892 0.961,1.05501 0.5014,-0.84609 1.2117,-1.05501 0.26114,-0.0731 1.22214,-0.0731 0.6163,0 0.97145,0.0209 0.40738,0.0209 0.81476,0.51184 0.40738,0.4805 0.35515,0.87744 l -1.10724,7.87602 z m -6.95681,-0.0104 -2.31893,0 1.29526,-1.14902 q 0.27159,0.27158 1.02367,1.14902 z"
           inkscape:connector-curvature="0" />
        <path
           id="path3519"
           style="font-style:normal;font-variant:normal;font-weight:normal;font-stretch:normal;font-family:'Killer boots';-inkscape-font-specification:'Killer boots';fill:#000000;fill-opacity:1"
           d="m 228.68047,211.85545 -0.97145,-1.11768 q -0.18802,0.13579 -1.3266,1.11768 l 0.3656,-2.66364 -1.14902,0 -0.49095,3.4784 -2.32938,0 1.10724,-7.86558 q 0.0627,-0.43871 0.63718,-0.92966 0.57452,-0.49095 1.01323,-0.49095 l 2.89345,0 q 0.43872,0 0.86699,0.49095 0.43872,0.4805 0.37604,0.91922 l -0.99233,7.06126 z m -0.10446,0.80432 -2.31894,0 1.30571,-1.14902 q 0.26114,0.27158 1.01323,1.14902 z m -1.51462,-5.79734 0.16713,-1.14902 -1.14902,0 -0.16713,1.14902 1.14902,0 z"
           inkscape:connector-curvature="0" />
        <path
           id="path3521"
           style="font-style:normal;font-variant:normal;font-weight:normal;font-stretch:normal;font-family:'Killer boots';-inkscape-font-specification:'Killer boots';fill:#000000;fill-opacity:1"
           d="m 236.42282,205.71341 -1.73398,0 -0.86699,6.14204 -0.98189,-1.11768 q -0.50139,0.39693 -1.3266,1.11768 l 0.86699,-6.14204 -1.74442,0 0.32381,-2.31894 5.7869,0 -0.32382,2.31894 z m -2.71587,6.94636 -2.31894,0 1.30571,-1.14902 q 0.26114,0.27158 1.01323,1.14902 z"
           inkscape:connector-curvature="0" />
        <path
           id="path3523"
           style="font-style:normal;font-variant:normal;font-weight:normal;font-stretch:normal;font-family:'Killer boots';-inkscape-font-specification:'Killer boots';fill:#000000;fill-opacity:1"
           d="m 242.56242,209.19181 -0.99233,-1.13858 q 0.31337,-0.30292 1.31615,-1.18036 l -0.32382,2.31894 z m 0.49095,-3.48885 -3.46796,0 -0.16713,1.16991 2.66364,0 -1.27437,1.13858 q 0.33426,0.43872 0.95056,1.16991 l -2.66365,0 -0.15668,1.15947 3.46796,0 -0.32382,2.32938 -4.41851,0 q -0.40738,0 -0.81476,-0.50139 -0.41783,-0.50139 -0.3656,-0.90877 l 0.89833,-6.45542 q 0.0627,-0.42827 0.63718,-0.91922 0.58496,-0.49094 1.02368,-0.49094 l 4.33494,0 -0.32381,2.30849 z"
           inkscape:connector-curvature="0" />
        <path
           id="path3525"
           style="font-style:normal;font-variant:normal;font-weight:normal;font-stretch:normal;font-family:'Killer boots';-inkscape-font-specification:'Killer boots';fill:#000000;fill-opacity:1"
           d="m 249.91927,205.71341 -0.98189,-1.14903 q 0.31337,-0.30292 1.30571,-1.16991 l -0.32382,2.31894 z m -1.00278,6.9568 -4.41852,0 q -0.40738,0 -0.81476,-0.50139 -0.41782,-0.50139 -0.3656,-0.90877 l 0.89833,-6.45542 q 0.0627,-0.43871 0.63719,-0.91922 0.58495,-0.49094 1.02367,-0.49094 l 3.57242,0 -1.28482,1.13858 q 0.33426,0.43871 0.961,1.16991 l -2.70543,0 -0.64763,4.63787 3.46796,0 -0.32381,2.32938 z"
           inkscape:connector-curvature="0" />
        <path
           id="path3527"
           style="font-style:normal;font-variant:normal;font-weight:normal;font-stretch:normal;font-family:'Killer boots';-inkscape-font-specification:'Killer boots';fill:#000000;fill-opacity:1"
           d="m 253.30269,203.40491 -1.29526,1.14903 q -0.26115,-0.28204 -1.02368,-1.14903 l 2.31894,0 z m 2.18314,9.2653 -2.31894,0 0.49095,-3.4784 -1.15947,0 -0.49094,3.4784 -2.31894,0 1.1908,-8.47143 0.9819,1.12814 q 0.36559,-0.30293 1.33704,-1.12814 l -0.37604,2.66365 1.15947,0 0.49094,-3.46796 2.30849,0 -1.29526,9.27574 z"
           inkscape:connector-curvature="0" />
        <path
           id="path3529"
           style="font-style:normal;font-variant:normal;font-weight:normal;font-stretch:normal;font-family:'Killer boots';-inkscape-font-specification:'Killer boots';fill:#000000;fill-opacity:1"
           d="m 259.06037,212.31506 q -0.40738,0.35515 -0.83565,0.35515 -0.44917,0 -0.76254,-0.3447 -0.31337,-0.34471 -0.25069,-0.79387 0.0627,-0.45961 0.45961,-0.81476 0.40738,-0.3656 0.86699,-0.3656 0.41782,0 0.7103,0.30292 0.29248,0.30293 0.29248,0.72075 0,0.52229 -0.4805,0.94011 z"
           inkscape:connector-curvature="0" />
        <path
           id="path3531"
           style="font-style:normal;font-variant:normal;font-weight:normal;font-stretch:normal;font-family:'Killer boots';-inkscape-font-specification:'Killer boots';fill:#000000;fill-opacity:1"
           d="m 266.73025,205.71341 -0.98189,-1.14903 q 0.31337,-0.30292 1.30571,-1.16991 l -0.32382,2.31894 z m -1.00278,6.9568 -4.41852,0 q -0.40738,0 -0.81476,-0.50139 -0.41782,-0.50139 -0.36559,-0.90877 l 0.89832,-6.45542 q 0.0627,-0.43871 0.63719,-0.91922 0.58495,-0.49094 1.02367,-0.49094 l 3.57242,0 -1.28482,1.13858 q 0.33426,0.43871 0.961,1.16991 l -2.70542,0 -0.64763,4.63787 3.46795,0 -0.32381,2.32938 z"
           inkscape:connector-curvature="0" />
        <path
           id="path3533"
           style="font-style:normal;font-variant:normal;font-weight:normal;font-stretch:normal;font-family:'Killer boots';-inkscape-font-specification:'Killer boots';fill:#000000;fill-opacity:1"
           d="m 272.49527,211.2705 q -0.0522,0.35515 -0.5954,0.86699 -0.57451,0.53272 -0.98189,0.53272 l -3.05013,0 q -0.39694,0 -0.80432,-0.51183 -0.41783,-0.50139 -0.3656,-0.89833 l 0.89833,-6.45542 q 0.0627,-0.42827 0.63718,-0.91922 0.58496,-0.50139 1.02368,-0.50139 l 2.89345,0 q 0.43871,0 0.87743,0.49095 0.43872,0.49095 0.37604,0.91922 l -0.90877,6.47631 z m -2.19359,-0.92967 0.64763,-4.62742 -1.14902,0 -0.64763,4.62742 1.14902,0 z"
           inkscape:connector-curvature="0" />
        <path
           id="path3535"
           style="font-style:normal;font-variant:normal;font-weight:normal;font-stretch:normal;font-family:'Killer boots';-inkscape-font-specification:'Killer boots';fill:#000000;fill-opacity:1"
           d="m 282.65058,212.67021 -2.30849,0 0.97144,-6.9568 -1.14902,0 -0.98189,6.9568 -2.32939,0 0.9819,-6.9568 -1.16992,0 -0.85654,6.14204 -0.99234,-1.11768 q -0.15668,0.1149 -1.3266,1.11768 l 0.99234,-7.05082 q 0.0627,-0.43871 0.5954,-0.89832 0.53273,-0.47006 0.97145,-0.5014 0.32381,-0.0209 0.98189,-0.0209 0.94011,0 1.19081,0.0731 0.73119,0.20892 0.961,1.05501 0.50139,-0.84609 1.21169,-1.05501 0.26114,-0.0731 1.22215,-0.0731 0.61629,0 0.97144,0.0209 0.40738,0.0209 0.81476,0.51184 0.40738,0.4805 0.35516,0.87744 l -1.10724,7.87602 z m -6.95681,-0.0104 -2.31894,0 1.29526,-1.14902 q 0.27159,0.27158 1.02368,1.14902 z"
           inkscape:connector-curvature="0" />
      </g>
    </g>
  </g>
</svg>
